<?xml version="1.0" encoding="utf-8"?>
<!-- Generator: Adobe Illustrator 25.3.0, SVG Export Plug-In . SVG Version: 6.00 Build 0)  -->
<svg version="1.1" id="Capa_1" xmlns="http://www.w3.org/2000/svg" xmlns:xlink="http://www.w3.org/1999/xlink" x="0px" y="0px"
	 viewBox="0 0 850.2 800" style="enable-background:new 0 0 850.2 800;" xml:space="preserve">
<style type="text/css">
	.st0{fill:url(#SVGID_1_);}
	.st1{fill:url(#SVGID_2_);}
	.st2{display:none;fill:url(#SVGID_3_);}
	.st3{fill:url(#SVGID_4_);}
	.st4{fill:url(#SVGID_5_);}
</style>
<g>
	<g>
		<g id="upperstack">
			
				<linearGradient id="SVGID_1_" gradientUnits="userSpaceOnUse" x1="21.6986" y1="465.2525" x2="821.8057" y2="465.2525" gradientTransform="matrix(1 0 0 -1 0 799.89)">
				<stop  offset="0" style="stop-color:#9DDCF3"/>
				<stop  offset="8.759597e-02" style="stop-color:#84D4EF"/>
				<stop  offset="0.2332" style="stop-color:#6CCBEC"/>
				<stop  offset="0.4177" style="stop-color:#53C2E9"/>
				<stop  offset="0.5843" style="stop-color:#3BBAE6"/>
				<stop  offset="1" style="stop-color:#22B1E3"/>
			</linearGradient>
			<path class="st0" d="M34.7,345.2l378.7,162.1c2.7,1.2,5.5,1.7,8.4,1.7s5.7-0.6,8.4-1.7l378.7-162.1c8-3.4,13.1-11.3,12.9-20
				c-0.2-8.7-5.6-16.4-13.7-19.5l-378.7-144c-4.9-1.9-10.3-1.9-15.2,0l-378.7,144c-8.1,3.1-13.6,10.8-13.8,19.5
				C21.6,333.8,26.7,341.7,34.7,345.2z M421.7,204.3l318.5,121.1l3.3,1.2L421.7,464.4L100,326.7L421.7,204.3z"/>
			
				<linearGradient id="SVGID_2_" gradientUnits="userSpaceOnUse" x1="94.8" y1="462.94" x2="747.7" y2="462.94" gradientTransform="matrix(1 0 0 -1 0 799.89)">
				<stop  offset="0" style="stop-color:#9DDCF3"/>
				<stop  offset="8.759597e-02" style="stop-color:#84D4EF"/>
				<stop  offset="0.2332" style="stop-color:#6CCBEC"/>
				<stop  offset="0.4177" style="stop-color:#53C2E9"/>
				<stop  offset="0.5843" style="stop-color:#3BBAE6"/>
				<stop  offset="1" style="stop-color:#22B1E3"/>
			</linearGradient>
			<polyline class="st1" points="97.9,323.5 426.8,200.1 747.7,324.1 426.2,473.8 94.8,324.7 			"/>
		</g>
		
			<linearGradient id="SVGID_3_" gradientUnits="userSpaceOnUse" x1="-5.572179e-03" y1="532.2525" x2="800.1057" y2="532.2525" gradientTransform="matrix(1 0 0 -1 0 799.89)">
			<stop  offset="0" style="stop-color:#77B3E2"/>
			<stop  offset="8.759597e-02" style="stop-color:#6EB0E1"/>
			<stop  offset="0.2332" style="stop-color:#54A9DD"/>
			<stop  offset="0.4177" style="stop-color:#2B9DD8"/>
			<stop  offset="0.5843" style="stop-color:#0091D2"/>
			<stop  offset="1" style="stop-color:#007AC0"/>
		</linearGradient>
		<path class="st2" d="M13,278.2l378.7,162.1c2.7,1.2,5.5,1.7,8.4,1.7s5.7-0.6,8.4-1.7l378.7-162.1c8-3.4,13.1-11.3,12.9-20
			c-0.2-8.7-5.6-16.4-13.7-19.5l-378.7-144c-4.9-1.9-10.3-1.9-15.2,0l-378.7,144C5.6,241.8,0.2,249.5,0,258.2
			C-0.2,266.9,5,274.8,13,278.2z M400,137.4l321.8,122.4L400,397.5L78.2,259.8L400,137.4z"/>
		
			<linearGradient id="SVGID_4_" gradientUnits="userSpaceOnUse" x1="20.6482" y1="303.1159" x2="820.5518" y2="303.1159" gradientTransform="matrix(1 0 0 -1 0 799.89)">
			<stop  offset="0" style="stop-color:#9DDCF3"/>
			<stop  offset="8.759597e-02" style="stop-color:#84D4EF"/>
			<stop  offset="0.2332" style="stop-color:#6CCBEC"/>
			<stop  offset="0.4177" style="stop-color:#53C2E9"/>
			<stop  offset="0.5843" style="stop-color:#3BBAE6"/>
			<stop  offset="1" style="stop-color:#22B1E3"/>
		</linearGradient>
		<path class="st3" d="M33.6,434.4l387,165.7l387-165.7c10.8-4.6,15.9-17.2,11.2-28c-4.6-10.8-17.1-15.9-28-11.2L420.6,553.7
			L50.4,395.2c-10.8-4.6-23.4,0.4-28,11.2C17.7,417.2,22.8,429.7,33.6,434.4z"/>
		
			<linearGradient id="SVGID_5_" gradientUnits="userSpaceOnUse" x1="20.6482" y1="217.8159" x2="820.5518" y2="217.8159" gradientTransform="matrix(1 0 0 -1 0 799.89)">
			<stop  offset="0" style="stop-color:#9DDCF3"/>
			<stop  offset="8.759597e-02" style="stop-color:#84D4EF"/>
			<stop  offset="0.2332" style="stop-color:#6CCBEC"/>
			<stop  offset="0.4177" style="stop-color:#53C2E9"/>
			<stop  offset="0.5843" style="stop-color:#3BBAE6"/>
			<stop  offset="1" style="stop-color:#22B1E3"/>
		</linearGradient>
		<path class="st4" d="M33.6,519.7l387,165.7l387-165.7c10.8-4.6,15.9-17.2,11.2-28c-4.6-10.8-17.1-15.9-28-11.2L420.6,639
			L50.4,480.5c-10.8-4.6-23.4,0.4-28,11.2C17.7,502.5,22.8,515,33.6,519.7z"/>
	</g>
</g>
</svg>
